<?xml version="1.0"?>
<svg xmlns="http://www.w3.org/2000/svg" version="1.2" baseProfile="tiny" width="800" height="559" viewBox="0 0 800 559" stroke-linecap="round" stroke-linejoin="round">
<g id="77054">
<path d="M 57.2621 452.598 62.0018 443.9932 85.7005 414.3374 83.9984 413.25 173.9823 299.7447 208.4606 301.0685 201.8652 271.4718 248.3287 210.5882 313.5266 131.6321 345.2626 121.4671 330.9489 102.059 342.8869 86.6461 365.4981 92.095 387.2465 111.3139 444.3832 97.5912 443.0358 73.0651 484.4286 72.5214 487.0763 84.8731 540.348 73.7625 531.8377 69.1764 540.8444 1 561.6235 11.9569 548.61 57.7585 550.9148 71.2567 612.023 56.742 613.0514 30.1003 629.6581 23.1384 635.6626 1.7328 646.0522 1.0118 638.4402 20.9281 659.3021 34.7336 673.5922 45.7851 772.311 27.1808 799 24.545 788.0667 61.6236 742.5251 191.0146 729.7716 214.9969 722.8807 264.38 716.9353 296.6952 716.0961 326.7529 712.7275 333.3601 589.2227 367.862 544.1185 384.6343 547.2507 368.5358 570.3584 302.4042 535.49 387.1874 464.4768 405.1889 345.3808 443.6859 136.1945 503.7776 115.0253 480.0198 77.143 465.3633 47.0025 462.9166 57.2621 452.598 Z M 1 554.709 6.9335 515.0655 15.0419 501.0354 26.3179 489.0147 73.0888 512.3351 133.8188 504.3449 5.9525 552.7705 2.1229 558.3849 1 554.709 Z"/>
</g>
</svg>